mtllib materials.mtl
v 0.01646373 -0.02612174 -0.1208594
v 0.02702865 -0.03168738 -0.06230822
v 0.04187864 -0.03951037 0.01999092
v 0.05182365 -0.04474938 0.07510656
v 0.3096864 -0.07186234 -0.1193076
v -0.2598071 -0.03308606 -0.06546208
v -0.2356315 0.2057451 -0.03020179
v -0.3949293 0.4064481 0.07620931
v -0.04091449 -0.02540731 -0.1104383
v -0.07539801 -0.2371078 -0.09888211
v -0.01801978 -0.2378222 -0.1093033
v 0.02219254 0.1729939 -0.102966
v 0.05755246 0.1543661 0.09299999
v -0.2209322 0.206863 0.06660295
v -0.1469722 -0.02408695 -0.09117579
v -0.01275879 -0.04394531 0.08683622
v -0.13744 -0.04239309 0.1094812
v -0.3889618 0.4044077 0.1049554
v -0.3186364 0.03260076 0.1486835
v -0.3800183 0.08040142 -0.02656472
v -0.3627865 0.05211782 0.1094686
v -0.5383188 0.3240163 0.06523168
v 0.3274045 -0.07598102 -0.04112524
v 0.3182617 0.03645313 -0.1003644
v 0.6311654 -0.1417708 -0.1787635
v -0.5521539 0.5252148 0.2313489
v -0.5875138 0.5438424 0.03538299
v -0.5146562 0.3080678 0.1482354
v -0.7464848 0.4799055 0.1594704
v -0.7177931 0.3011973 0.05207813
v -0.6824331 0.2825695 0.2480442
v -0.7432382 0.4788364 0.1705881
v -0.8718992 0.3097032 0.1319646
v -0.8544729 0.3717515 0.2313861
v -0.8643623 0.30628 0.2039598
v -0.8713771 0.3835974 0.1402925
v 0.3359799 0.03233433 -0.02218205
v 0.6379463 -0.1402591 -0.1540528
v 0.6377211 -0.08274925 -0.16954
v 0.8686245 -0.1549439 -0.2376045
v 0.644502 -0.08123767 -0.1448293
v -0.1439542 -0.02988291 -0.02764499
v -0.1405719 -0.0363785 0.04355413
v -0.02045496 -0.03887808 0.03291255
v -0.03254578 -0.03091741 -0.0518024
v -0.2631006 -0.1785995 -0.1065792
v -0.1904173 -0.1795044 -0.1197801
v -0.3296347 0.03839469 0.08773029
v -0.2314764 -0.1911057 0.0758068
v -0.07435358 -0.234539 0.09047574
v -0.08204973 -0.2294718 0.03655213
v -0.06702928 -0.2426178 -0.04024625
v -0.007454857 -0.2433878 -0.05075207
v -0.01363516 -0.389227 -0.1183516
v 0.04374307 -0.3899415 -0.1287728
v -0.2449082 -0.03654599 0.0005094409
v -0.2475824 -0.19129 -0.04308143
v -0.1833015 -0.1919745 -0.05604401
v -0.21595 -0.3848814 -0.1359828
v -0.1432667 -0.3857863 -0.1491837
v -0.009771138 -0.2353431 0.07874614
v -0.01971614 -0.2301041 0.02363047
v -0.002484575 -0.3752434 0.0753901
v -0.01018073 -0.3701761 0.02146649
v -0.1755473 -0.2054868 0.1276773
v -0.2171755 -0.2049496 0.1350547
v -0.1819817 -0.1914223 0.06345558
v -0.1600276 -0.4453431 0.1218773
v -0.1743285 -0.4314993 0.0626294
v -0.2004317 -0.3975719 -0.07248497
v -0.1361508 -0.3982564 -0.08544755
v -0.2108381 -0.5041848 -0.1515998
v -0.301062 -0.5082504 -0.06391993
v -0.199144 -0.5091411 -0.03803176
v -0.121151 -0.4489735 0.0865497
v -0.1244059 -0.4403027 0.04148728
v -0.2620854 -0.5438425 0.173151
v -0.2073461 -0.5247695 0.1042357
v -0.2026127 -0.5288393 0.06784034
v -0.005266428 -0.3947371 -0.05971575
v 0.054308 -0.3955071 -0.07022157
v 0.009513319 -0.5068204 -0.1576204
v -0.05596177 -0.513077 -0.07256758
v 0.003023803 -0.4820693 -0.06820211
v 0.06209785 -0.3760474 0.0636605
v 0.05215287 -0.3708084 0.008544832
v -0.06969398 -0.4537562 0.04584613
v 0.01869775 -0.4596195 0.09828925
v 0.008752778 -0.4543805 0.04317358
v 0.8715566 -0.1354622 -0.2385063
v 0.8718992 -0.1520799 -0.2466743
v 0.8708592 -0.1365556 -0.2480442
v -0.05849861 -0.45565 0.1043644
v -0.06943311 -0.5087741 -0.1536551
v -0.3067918 -0.5153459 -0.1400254
v -0.2783605 -0.5362688 0.08014995
vn -0.1534513 -0.9859475 -0.0660314
vn -0.3871455 0.1728978 -0.9056626
vn -0.1789411 -0.02454207 -0.9835536
vn 0.1793169 0.9818997 0.06097951
vn -0.1786721 0.09316171 -0.9794883
vn 0 0 0
vn 0.7495593 0.6528565 -0.1092665
vn 0.4190761 0.1838384 0.8891449
vn -0.6955337 -0.7159209 -0.06074664
vn -0.09692432 0.2951809 -0.9505124
vn 0.3739547 -0.09367738 0.9227039
vn 0.4186863 0.908067 0.01076972
vn 0.01914465 0.08894086 -0.9958529
vn -0.2130544 -0.9770351 -0.003187171
vn 0.5809183 0.8134975 -0.02749296
vn 0.3015536 0.03461217 0.9528207
vn -0.8420867 -0.52086 0.1399813
vn -0.6592424 0.306719 -0.6865295
vn -0.2735952 0.9516274 0.1398245
vn -0.3478443 0.2489544 0.9038949
vn 0.08534399 -0.9903125 -0.1095344
vn -0.3980649 0.4247212 -0.8131152
vn -0.5981261 0.7620803 0.2479492
vn -0.1854506 0.3104808 0.9323142
vn -0.1111938 -0.9910294 -0.07413964
vn -0.9834376 -0.01342156 0.1807494
vn 0.3874398 0.9210578 -0.03928106
vn -0.1227503 -0.9921364 -0.02444772
vn -0.6169426 0.757634 0.213008
vn -0.07545852 -0.9963672 -0.03947557
vn 0.6920138 -0.3653421 0.622609
vn 0.06644934 0.1112802 -0.991565
vn 0.3042274 -0.1874288 0.9339787
vn 0.08479171 0.1651361 -0.9826191
vn 0.3012161 -0.1873633 0.9349673
vn 0.344024 0.9385276 -0.02852159
vn -0.1405739 0.1813519 -0.9733194
vn -0.0376264 -0.9967448 0.07130221
vn -0.1480542 0.1687292 -0.9744796
vn 0.3054288 -0.1800469 0.9350381
vn 0.2932383 0.9459783 -0.1383335
vn -0.1647381 -0.9807109 0.1052016
vn -0.02864411 -0.9955778 -0.08946695
vn -0.1714324 0.2244762 -0.9592817
vn -0.3802882 -0.9225032 -0.06609572
vn -0.9096501 -0.3956349 0.1265292
vn -0.02864411 -0.9955778 -0.08946695
vn -0.9379605 0.3062296 0.1626453
vn -0.9737397 0.1670539 0.1546738
vn 0.1739306 0.02540609 0.9844301
vn 0.9672168 -0.1679464 -0.190488
vn -0.1777968 0.05357407 -0.9826078
vn -0.9724625 -0.04747064 0.2281735
vn 0.190897 -0.2141776 0.9579595
vn 0.9722314 -0.2243292 -0.06665128
vn -0.1766214 0.09921406 -0.9792657
vn 0.1780975 -0.03878031 0.9832484
vn 0.9317685 -0.3048866 -0.1971083
vn -0.2023069 0.04670028 -0.9782081
vn -0.8838615 -0.4603459 0.0828888
vn 0.1749499 0.06870258 0.9821774
vn 0.9614956 -0.2657759 -0.06992263
vn -0.2420488 -0.05966014 -0.9684281
vn -0.9556105 -0.236785 0.1753321
vn -0.9521987 -0.2438708 0.1839691
vn 0.1958282 -0.09437073 0.9760868
vn 0.9709132 0.2309361 -0.06321461
vn -0.1759492 0.1203538 -0.9770143
vn -0.6940413 0.6542773 0.3003794
vn 0.1920688 0.2915872 0.9370627
vn 0.843338 -0.5260472 -0.1097969
vn 0.0024059 -0.9990354 -0.04384793
vn 0.6736113 0.02572441 0.7386379
vn 0.972258 0.2290913 -0.04724045
vn -0.3913433 -0.00930856 -0.9201978
vn -0.5723764 0.7570528 0.3150495
vn 0.5632088 -0.4842486 0.6695514
vn 0.7093776 -0.680859 -0.1822483
vn -0.3800961 0.06103725 -0.9229309
vn 0.4984286 -0.85202 0.1600967
vn -0.9180731 -0.3848935 0.09486181
vn 0.1726993 -0.05574456 0.9833959
vn 0.9131089 0.3871146 -0.127963
vn -0.1680255 0.2823238 -0.9444897
vn -0.912925 0.3731276 0.1653595
vn 0.1721331 -0.07907383 0.9818949
vn 0.840991 -0.502905 -0.1995514
vn 0.4323787 -0.8604583 0.2695557
vn 0.1785081 -0.01430362 0.9838344
vn 0.8796206 0.4616054 -0.1148397
vn -0.2029701 0.001310249 -0.9791841
vn -0.7792158 0.603833 0.1679544
vn 0.1741528 0.2984009 0.9384177
vn 0.8334222 -0.5154195 -0.1993743
vn -0.1971052 -0.2895071 -0.9366618
vn -0.01108101 -0.995638 -0.09264036
vn 0.3247029 -0.1811364 0.928309
vn 0.1872557 0.9760097 -0.1110873
vn -0.2601677 0.1772252 -0.9491596
vn 0.9450509 -0.1283077 0.3006922
vn -0.3390746 -0.1052092 -0.934858
vn 0.1829076 0.975131 -0.1251578
vn 0.9950424 0.05963305 -0.07959011
vn 0.3784692 -0.01411821 0.9255062
vn -0.1364998 -0.9294463 -0.3427787
vn 0.1349947 -0.1035924 -0.9854161
vn 0.476182 -0.2414111 0.8455598
vn 0.08712813 -0.1148662 -0.9895527
vn 0.5231885 -0.2243373 0.8221597
vn -0.6735057 -0.04058626 0.738067
vn -0.02591001 0.299452 -0.9537595
vn -0.2482535 0.1660282 -0.954361
vn -0.004900818 0.4283575 0.9035961
vn -0.2306198 0.1403499 -0.9628689
vn 0.5886409 0.8057769 -0.06500455
vn -0.9751146 -0.03956858 0.2181418
vn -0.2343493 0.2692551 -0.9341211
vn -0.6030999 -0.7920286 0.09466371
vn 0.2752162 -0.2650764 0.9241161
vn 0.2514305 -0.5998172 0.7596065
vn 0.1745289 -0.09083584 0.9804533
vn 0.1743324 -0.01252873 0.9846072
vn -0.242145 -0.00438027 -0.9702302
vn 0.2276195 0.04140324 0.9728696
vn -0.2480682 -0.05585329 -0.9671311
vn -0.3917773 -0.9199076 -0.01675013
vn -0.1417343 -0.9202402 0.3647867
vn -0.2840768 0.942949 0.1736303
vn -0.8396313 -0.5431172 -0.006564536
vn 0.7444752 0.6566625 -0.1206281
vn 0.08966714 0.2817683 0.9552835
vn -0.05307969 -0.9983444 -0.02215502
vn -0.7792459 0.6036096 0.1686157
vn -0.03494843 -0.2568381 -0.9658223
vn -0.05531392 0.3064449 -0.95028
vn -0.9111848 0.3747151 0.1712624
vn 0.02185892 -0.9981577 -0.05659816
vn -0.02172527 -0.09873778 0.9948763
vn 0.1249872 -0.9886999 0.08276985
vn -0.1329409 0.12304 -0.9834571
vn -0.8207518 0.5712213 0.008535554
vn -0.2336875 0.2844245 0.9297811
vn -0.1597872 -0.006414905 -0.9871306
vn 0.0818493 -0.9920955 -0.09511661
vn -0.6833809 0.7082143 0.1772654
vn 0.7291685 -0.5304397 0.4323738
vn 0.9585862 -0.2396355 -0.153907
vn 0.8543509 -0.4837105 -0.1900233
vn -0.9095223 -0.3957584 0.1270617
vn 0.9591233 -0.2407039 -0.1488089
vn 0.9372187 -0.3126249 0.1545533
vn 0.1391028 -0.9643887 -0.2249552
vn -0.9886575 0.1039099 0.1084392
usemtl mat3
f 5//1 4//1 3//1 2//1 1//1
f 8//2 7//2 6//2
f 11//3 10//3 9//3 1//3
f 7//4 14//4 13//4 12//4
f 9//5 15//5 12//5 1//5
f 13//6 17//6 16//6 4//6
f 8//7 18//7 7//7
f 18//8 19//8 14//8
f 21//9 20//9 6//9
f 22//10 8//10 20//10
f 23//11 13//11 4//11
f 24//12 12//12 13//12
f 5//13 1//13 12//13
f 25//14 23//14 5//14
f 27//15 26//15 18//15
f 28//16 21//16 18//16
f 28//17 22//17 21//17
f 30//18 29//18 27//18
f 29//19 26//19 27//19
f 32//20 31//20 26//20
f 31//21 30//21 28//21
f 33//22 29//22 30//22
f 34//23 32//23 29//23
f 35//24 31//24 32//24
f 35//25 30//25 31//25
f 34//26 36//26 33//26
f 13//27 37//27 24//27
f 5//28 23//28 4//28
f 29//29 36//29 34//29
f 35//30 33//30 30//30
f 32//31 34//31 35//31
f 33//32 36//32 29//32
f 23//33 37//33 13//33
f 12//34 24//34 5//34
f 38//35 37//35 23//35
f 39//36 24//36 37//36
f 25//37 5//37 24//37
f 40//38 38//38 25//38
f 24//39 39//39 25//39
f 38//40 41//40 37//40
f 37//41 41//41 39//41
f 25//42 38//42 23//42
f 45//43 44//43 16//43 17//43 43//43 42//43 15//43 9//43
f 47//44 46//44 15//44
f 42//45 43//45 48//45
f 49//46 19//46 48//46
f 2//47 3//47 44//47 45//47
f 51//48 50//48 16//48 44//48
f 10//49 52//49 45//49 9//49
f 52//50 53//50 2//50 45//50
f 53//51 11//51 1//51 2//51
f 55//52 54//52 10//52 11//52
f 46//53 57//53 56//53
f 57//54 58//54 42//54
f 58//55 15//55 42//55
f 60//56 59//56 46//56 47//56
f 50//57 61//57 4//57 16//57
f 61//58 62//58 3//58 4//58
f 62//59 51//59 44//59 3//59
f 64//60 63//60 50//60 51//60
f 66//61 65//61 17//61
f 67//62 43//62 17//62
f 67//63 49//63 43//63
f 69//64 68//64 66//64 49//64
f 59//65 70//65 57//65 46//65
f 70//66 71//66 58//66 57//66
f 71//67 60//67 47//67 58//67
f 72//68 59//68 60//68
f 73//69 70//69 59//69
f 74//70 71//70 70//70
f 74//71 72//71 71//71
f 74//72 73//72 72//72
f 68//73 75//73 65//73
f 75//74 76//74 67//74 65//74
f 76//75 69//75 67//75
f 77//76 68//76 69//76
f 78//77 75//77 68//77
f 78//78 79//78 76//78 75//78
f 79//79 69//79 76//79
f 79//80 78//80 77//80
f 54//81 80//81 52//81 10//81
f 80//82 81//82 53//82 52//82
f 81//83 55//83 11//83 53//83
f 82//84 54//84 55//84
f 83//85 80//85 54//85
f 84//86 81//86 80//86
f 84//87 55//87 81//87
f 84//88 83//88 82//88
f 63//89 85//89 61//89 50//89
f 85//90 86//90 62//90 61//90
f 86//91 64//91 51//91 62//91
f 87//92 63//92 64//92
f 88//93 85//93 63//93
f 88//94 89//94 86//94 85//94
f 89//95 64//95 86//95
f 89//96 88//96 87//96
f 40//97 41//97 38//97
f 90//98 39//98 41//98
f 91//99 25//99 39//99
f 90//100 40//100 91//100
f 39//101 92//101 91//101
f 90//102 92//102 39//102
f 91//103 92//103 90//103
f 40//104 90//104 41//104
f 25//105 91//105 40//105
f 22//106 27//106 8//106
f 18//107 26//107 28//107
f 27//108 22//108 30//108
f 31//109 28//109 26//109
f 18//110 21//110 19//110
f 6//111 20//111 8//111
f 6//112 7//112 12//112
f 13//113 14//113 19//113
f 15//114 6//114 12//114
f 18//115 8//115 27//115
f 56//116 6//116 46//116
f 46//117 6//117 15//117
f 6//118 56//118 48//118
f 42//119 56//119 57//119
f 48//120 56//120 42//120
f 13//121 19//121 17//121
f 65//122 66//122 68//122
f 69//123 49//123 67//123
f 17//124 19//124 66//124
f 49//125 48//125 43//125
f 48//126 19//126 21//126
f 6//127 48//127 21//127
f 29//128 32//128 26//128
f 22//129 20//129 21//129
f 18//130 14//130 7//130
f 63//131 93//131 88//131
f 88//132 93//132 87//132
f 87//133 93//133 63//133
f 89//134 87//134 64//134
f 82//135 94//135 54//135
f 54//136 94//136 83//136
f 83//137 94//137 82//137
f 80//138 83//138 84//138
f 73//139 95//139 72//139
f 72//140 95//140 59//140
f 59//141 95//141 73//141
f 70//142 73//142 74//142
f 79//143 96//143 69//143
f 77//144 96//144 79//144
f 69//145 96//145 77//145
f 68//146 77//146 78//146
f 58//147 47//147 15//147
f 72//148 60//148 71//148
f 49//149 66//149 19//149
f 17//150 65//150 67//150
f 84//151 82//151 55//151
f 30//152 22//152 28//152
f 33//153 35//153 34//153
